<svg width="50" height="50" viewBox="0 0 50 50" fill="none" xmlns="http://www.w3.org/2000/svg">
<path d="M44.7 21.1541C44.9563 22.5271 45.0959 23.9625 45.0959 25.4604C45.0959 37.177 37.2542 45.5083 25.4104 45.5083C22.717 45.5091 20.0498 44.9792 17.5613 43.9489C15.0727 42.9185 12.8116 41.4079 10.907 39.5034C9.00248 37.5988 7.49188 35.3377 6.46153 32.8491C5.43118 30.3606 4.90128 27.6934 4.9021 25C4.90128 22.3065 5.43118 19.6394 6.46153 17.1508C7.49188 14.6622 9.00248 12.4011 10.907 10.4966C12.8116 8.59202 15.0727 7.08142 17.5613 6.05107C20.0498 5.02072 22.717 4.49082 25.4104 4.49164C30.9479 4.49164 35.575 6.52914 39.125 9.83747L33.3438 15.6187V15.6041C31.1917 13.5541 28.4604 12.5021 25.4104 12.5021C18.6438 12.5021 13.1438 18.2187 13.1438 24.9875C13.1438 31.7541 18.6438 37.4833 25.4104 37.4833C31.55 37.4833 35.7292 33.9729 36.5875 29.1521H25.4104V21.1541H44.7021H44.7Z" fill="#312ECB"/>
</svg>
